<svg xmlns="http://www.w3.org/2000/svg" xmlns:xlink="http://www.w3.org/1999/xlink" width="254.379" height="254.13" viewBox="0 0 254.379 254.13">
  <defs>
    <filter id="Rect치ngulo_26332" x="0" y="25.847" width="254.379" height="228.283" filterUnits="userSpaceOnUse">
      <feOffset dx="4" dy="6" input="SourceAlpha"/>
      <feGaussianBlur stdDeviation="5" result="blur"/>
      <feFlood flood-opacity="0.161"/>
      <feComposite operator="in" in2="blur"/>
      <feComposite in="SourceGraphic"/>
    </filter>
    <radialGradient id="radial-gradient" cx="0.076" cy="0.019" r="1.465" gradientTransform="translate(0.001)" gradientUnits="objectBoundingBox">
      <stop offset="0" stop-color="#f6f6f7"/>
      <stop offset="0.477" stop-color="#f9f9fa"/>
      <stop offset="0.715" stop-color="#fff"/>
    </radialGradient>
  </defs>
  <g id="Grupo_50271" data-name="Grupo 50271" transform="translate(11)">
    <g id="Grupo_28455" data-name="Grupo 28455" transform="translate(0 34.846)">
      <g transform="matrix(1, 0, 0, 1, -11, -34.85)" filter="url(#Rect치ngulo_26332)">
        <rect id="Rect치ngulo_26332-2" data-name="Rect치ngulo 26332" width="224.379" height="198.283" rx="8" transform="translate(11 34.85)" fill="#fff"/>
      </g>
      <path id="Trazado_40003" data-name="Trazado 40003" d="M-925.653,311.778h-44.125a8.886,8.886,0,0,0-8.886,8.886h61.9A8.886,8.886,0,0,0-925.653,311.778Z" transform="translate(1060.18 -122.738)" fill="#ffa726"/>
      <path id="Trazado_189594" data-name="Trazado 189594" d="M14.12,15H11.862V6.285l-2.7.832V5.3l4.711-1.687h.242Zm3.906-1.109a1.137,1.137,0,0,1,.363-.875,1.412,1.412,0,0,1,1.828,0,1.137,1.137,0,0,1,.363.875,1.121,1.121,0,0,1-.359.863,1.435,1.435,0,0,1-1.836,0A1.121,1.121,0,0,1,18.026,13.891ZM28.581,15h-1.5V3.625h1.5Zm3.883-8.453.047,1.063a3.08,3.08,0,0,1,2.531-1.219q2.68,0,2.7,3.023V15H36.3V9.406a1.946,1.946,0,0,0-.418-1.352A1.675,1.675,0,0,0,34.6,7.617a2.086,2.086,0,0,0-1.234.375,2.546,2.546,0,0,0-.828.984V15H31.1V6.547ZM41.5,15H40.05V6.547H41.5ZM39.933,4.3a.863.863,0,0,1,.215-.594.807.807,0,0,1,.637-.242.819.819,0,0,1,.641.242.854.854,0,0,1,.219.594.826.826,0,0,1-.219.586.834.834,0,0,1-.641.234.821.821,0,0,1-.637-.234A.834.834,0,0,1,39.933,4.3ZM47.2,13.977a2.082,2.082,0,0,0,1.352-.469,1.649,1.649,0,0,0,.641-1.172h1.367a2.621,2.621,0,0,1-.5,1.383,3.293,3.293,0,0,1-1.23,1.047,3.55,3.55,0,0,1-1.629.391A3.482,3.482,0,0,1,44.452,14a4.59,4.59,0,0,1-1.02-3.152v-.242a5.089,5.089,0,0,1,.453-2.2,3.451,3.451,0,0,1,1.3-1.492,3.7,3.7,0,0,1,2-.531,3.39,3.39,0,0,1,2.363.852,3.043,3.043,0,0,1,1,2.211H49.19a1.992,1.992,0,0,0-.621-1.348,1.932,1.932,0,0,0-1.379-.527,2.023,2.023,0,0,0-1.707.793,3.724,3.724,0,0,0-.605,2.293v.273a3.65,3.65,0,0,0,.6,2.25A2.033,2.033,0,0,0,47.2,13.977ZM53.753,15H52.308V6.547h1.445ZM52.19,4.3a.863.863,0,0,1,.215-.594.807.807,0,0,1,.637-.242.819.819,0,0,1,.641.242A.854.854,0,0,1,53.9,4.3a.826.826,0,0,1-.219.586.834.834,0,0,1-.641.234.821.821,0,0,1-.637-.234A.834.834,0,0,1,52.19,4.3ZM61.284,15a3.036,3.036,0,0,1-.2-.891,3.225,3.225,0,0,1-2.406,1.047,2.984,2.984,0,0,1-2.051-.707,2.287,2.287,0,0,1-.8-1.793,2.39,2.39,0,0,1,1-2.051,4.733,4.733,0,0,1,2.824-.73h1.406V9.211A1.623,1.623,0,0,0,60.6,8a1.821,1.821,0,0,0-1.336-.449,2.107,2.107,0,0,0-1.3.391,1.151,1.151,0,0,0-.523.945H56a2,2,0,0,1,.449-1.223,3.066,3.066,0,0,1,1.219-.934,4.1,4.1,0,0,1,1.691-.344,3.342,3.342,0,0,1,2.289.73A2.635,2.635,0,0,1,62.5,9.133v3.891a4.757,4.757,0,0,0,.3,1.852V15Zm-2.4-1.1a2.54,2.54,0,0,0,1.289-.352,2.127,2.127,0,0,0,.883-.914V10.9H59.925q-2.656,0-2.656,1.555a1.316,1.316,0,0,0,.453,1.063A1.742,1.742,0,0,0,58.886,13.9Zm9.969-6.055a4.331,4.331,0,0,0-.711-.055A1.9,1.9,0,0,0,66.214,9v6H64.769V6.547h1.406l.023.977a2.251,2.251,0,0,1,2.016-1.133,1.477,1.477,0,0,1,.641.109Zm10.508,6.32a3.07,3.07,0,0,1-2.477.992,2.628,2.628,0,0,1-2.059-.785,3.4,3.4,0,0,1-.715-2.324v-5.5h1.445v5.461q0,1.922,1.563,1.922a2.163,2.163,0,0,0,2.2-1.234V6.547h1.445V15H79.394Zm4.969-7.617.047,1.063a3.08,3.08,0,0,1,2.531-1.219q2.68,0,2.7,3.023V15H88.167V9.406a1.946,1.946,0,0,0-.418-1.352,1.675,1.675,0,0,0-1.277-.437,2.086,2.086,0,0,0-1.234.375,2.546,2.546,0,0,0-.828.984V15H82.964V6.547ZM97.011,15a3.036,3.036,0,0,1-.2-.891A3.225,3.225,0,0,1,94.4,15.156a2.984,2.984,0,0,1-2.051-.707,2.288,2.288,0,0,1-.8-1.793,2.39,2.39,0,0,1,1-2.051,4.733,4.733,0,0,1,2.824-.73h1.406V9.211A1.623,1.623,0,0,0,96.331,8,1.821,1.821,0,0,0,95,7.555a2.108,2.108,0,0,0-1.3.391,1.151,1.151,0,0,0-.523.945H91.722a2,2,0,0,1,.449-1.223,3.066,3.066,0,0,1,1.219-.934,4.1,4.1,0,0,1,1.691-.344,3.342,3.342,0,0,1,2.289.73,2.635,2.635,0,0,1,.859,2.012v3.891a4.757,4.757,0,0,0,.3,1.852V15Zm-2.4-1.1a2.54,2.54,0,0,0,1.289-.352,2.127,2.127,0,0,0,.883-.914V10.9H95.651Q93,10.9,93,12.453a1.316,1.316,0,0,0,.453,1.063A1.742,1.742,0,0,0,94.612,13.9Zm11.8-9.4V6.547H108V7.664h-1.578v5.249a1.173,1.173,0,0,0,.211.763.888.888,0,0,0,.719.254,3.5,3.5,0,0,0,.688-.094V15a4.215,4.215,0,0,1-1.109.155,1.8,1.8,0,0,1-1.461-.586,2.517,2.517,0,0,1-.492-1.664V7.664h-1.539V6.547h1.539V4.5Zm7.352,3.344a4.331,4.331,0,0,0-.711-.055A1.9,1.9,0,0,0,111.128,9v6h-1.445V6.547h1.406l.023.977a2.251,2.251,0,0,1,2.016-1.133,1.477,1.477,0,0,1,.641.109ZM120,15a3.036,3.036,0,0,1-.2-.891,3.225,3.225,0,0,1-2.406,1.047,2.984,2.984,0,0,1-2.051-.707,2.288,2.288,0,0,1-.8-1.793,2.39,2.39,0,0,1,1-2.051,4.733,4.733,0,0,1,2.824-.73h1.406V9.211A1.623,1.623,0,0,0,119.323,8a1.821,1.821,0,0,0-1.336-.449,2.108,2.108,0,0,0-1.3.391,1.151,1.151,0,0,0-.523.945h-1.453a2,2,0,0,1,.449-1.223,3.066,3.066,0,0,1,1.219-.934,4.1,4.1,0,0,1,1.691-.344,3.342,3.342,0,0,1,2.289.73,2.635,2.635,0,0,1,.859,2.012v3.891a4.757,4.757,0,0,0,.3,1.852V15Zm-2.4-1.1a2.54,2.54,0,0,0,1.289-.352,2.127,2.127,0,0,0,.883-.914V10.9h-1.133q-2.656,0-2.656,1.555a1.316,1.316,0,0,0,.453,1.063A1.742,1.742,0,0,0,117.6,13.9Zm7.25-7.352.047,1.063a3.08,3.08,0,0,1,2.531-1.219q2.68,0,2.7,3.023V15H128.69V9.406a1.946,1.946,0,0,0-.418-1.352A1.675,1.675,0,0,0,127,7.617a2.086,2.086,0,0,0-1.234.375,2.546,2.546,0,0,0-.828.984V15h-1.445V6.547Zm12.383,6.211a1.064,1.064,0,0,0-.441-.91,4.249,4.249,0,0,0-1.539-.559,7.277,7.277,0,0,1-1.742-.562,2.479,2.479,0,0,1-.953-.781,1.869,1.869,0,0,1-.309-1.078,2.193,2.193,0,0,1,.879-1.758,3.432,3.432,0,0,1,2.246-.719,3.532,3.532,0,0,1,2.332.742,2.357,2.357,0,0,1,.895,1.9h-1.453a1.3,1.3,0,0,0-.5-1.023,1.888,1.888,0,0,0-1.27-.43,1.976,1.976,0,0,0-1.234.344,1.082,1.082,0,0,0-.445.9.877.877,0,0,0,.414.789,5.1,5.1,0,0,0,1.5.508,7.8,7.8,0,0,1,1.754.578,2.558,2.558,0,0,1,1,.809,1.988,1.988,0,0,1,.324,1.152,2.163,2.163,0,0,1-.906,1.816,3.8,3.8,0,0,1-2.352.684,4.257,4.257,0,0,1-1.8-.359,2.922,2.922,0,0,1-1.223-1,2.42,2.42,0,0,1-.441-1.395h1.445a1.5,1.5,0,0,0,.582,1.152,2.258,2.258,0,0,0,1.434.426,2.331,2.331,0,0,0,1.316-.332A1.02,1.02,0,0,0,137.237,12.758ZM145.784,15a3.036,3.036,0,0,1-.2-.891,3.225,3.225,0,0,1-2.406,1.047,2.984,2.984,0,0,1-2.051-.707,2.287,2.287,0,0,1-.8-1.793,2.39,2.39,0,0,1,1-2.051,4.733,4.733,0,0,1,2.824-.73h1.406V9.211A1.623,1.623,0,0,0,145.1,8a1.821,1.821,0,0,0-1.336-.449,2.107,2.107,0,0,0-1.3.391,1.151,1.151,0,0,0-.523.945H140.5a2,2,0,0,1,.449-1.223,3.066,3.066,0,0,1,1.219-.934,4.1,4.1,0,0,1,1.691-.344,3.342,3.342,0,0,1,2.289.73A2.635,2.635,0,0,1,147,9.133v3.891a4.757,4.757,0,0,0,.3,1.852V15Zm-2.4-1.1a2.54,2.54,0,0,0,1.289-.352,2.127,2.127,0,0,0,.883-.914V10.9h-1.133q-2.656,0-2.656,1.555a1.316,1.316,0,0,0,.453,1.063A1.742,1.742,0,0,0,143.386,13.9Zm9.273.078a2.082,2.082,0,0,0,1.352-.469,1.649,1.649,0,0,0,.641-1.172h1.367a2.621,2.621,0,0,1-.5,1.383,3.293,3.293,0,0,1-1.23,1.047,3.55,3.55,0,0,1-1.629.391A3.482,3.482,0,0,1,149.913,14a4.59,4.59,0,0,1-1.02-3.152v-.242a5.089,5.089,0,0,1,.453-2.2,3.451,3.451,0,0,1,1.3-1.492,3.7,3.7,0,0,1,2-.531,3.39,3.39,0,0,1,2.363.852,3.043,3.043,0,0,1,1,2.211h-1.367a1.992,1.992,0,0,0-.621-1.348,1.932,1.932,0,0,0-1.379-.527,2.023,2.023,0,0,0-1.707.793,3.724,3.724,0,0,0-.605,2.293v.273a3.65,3.65,0,0,0,.6,2.25A2.033,2.033,0,0,0,152.659,13.977Zm8.375,0a2.082,2.082,0,0,0,1.352-.469,1.649,1.649,0,0,0,.641-1.172h1.367a2.621,2.621,0,0,1-.5,1.383,3.293,3.293,0,0,1-1.23,1.047,3.55,3.55,0,0,1-1.629.391A3.482,3.482,0,0,1,158.288,14a4.59,4.59,0,0,1-1.02-3.152v-.242a5.089,5.089,0,0,1,.453-2.2,3.451,3.451,0,0,1,1.3-1.492,3.7,3.7,0,0,1,2-.531,3.39,3.39,0,0,1,2.363.852,3.043,3.043,0,0,1,1,2.211h-1.367a1.992,1.992,0,0,0-.621-1.348,1.932,1.932,0,0,0-1.379-.527,2.023,2.023,0,0,0-1.707.793,3.724,3.724,0,0,0-.605,2.293v.273a3.65,3.65,0,0,0,.6,2.25A2.033,2.033,0,0,0,161.034,13.977ZM167.589,15h-1.445V6.547h1.445ZM166.026,4.3a.863.863,0,0,1,.215-.594.807.807,0,0,1,.637-.242.819.819,0,0,1,.641.242.854.854,0,0,1,.219.594.826.826,0,0,1-.219.586.834.834,0,0,1-.641.234.821.821,0,0,1-.637-.234A.834.834,0,0,1,166.026,4.3Zm3.492,6.391a4.993,4.993,0,0,1,.488-2.234,3.642,3.642,0,0,1,1.359-1.531,3.7,3.7,0,0,1,1.988-.539,3.565,3.565,0,0,1,2.793,1.2,4.6,4.6,0,0,1,1.066,3.18v.1a5.036,5.036,0,0,1-.473,2.215,3.589,3.589,0,0,1-1.352,1.527,3.743,3.743,0,0,1-2.02.547,3.556,3.556,0,0,1-2.785-1.2,4.575,4.575,0,0,1-1.066-3.164Zm1.453.172a3.616,3.616,0,0,0,.652,2.258,2.211,2.211,0,0,0,3.5-.012,3.954,3.954,0,0,0,.648-2.418,3.61,3.61,0,0,0-.66-2.254,2.1,2.1,0,0,0-1.754-.863,2.075,2.075,0,0,0-1.727.852A3.925,3.925,0,0,0,170.972,10.867Zm3.039-7.852h1.75l-2.094,2.3-1.164,0Zm6.383,3.531.047,1.063a3.08,3.08,0,0,1,2.531-1.219q2.68,0,2.7,3.023V15h-1.445V9.406a1.946,1.946,0,0,0-.418-1.352,1.675,1.675,0,0,0-1.277-.437,2.086,2.086,0,0,0-1.234.375,2.546,2.546,0,0,0-.828.984V15h-1.445V6.547ZM27.468,30.867a5.062,5.062,0,0,1-.883,3.109,2.829,2.829,0,0,1-2.391,1.18,3.1,3.1,0,0,1-2.422-.977v4.07H20.327v-11.7h1.32l.07.938a2.977,2.977,0,0,1,2.453-1.094,2.882,2.882,0,0,1,2.41,1.148,5.117,5.117,0,0,1,.887,3.2ZM26.022,30.7a3.735,3.735,0,0,0-.609-2.258,1.963,1.963,0,0,0-1.672-.828,2.125,2.125,0,0,0-1.969,1.164V32.82a2.129,2.129,0,0,0,1.984,1.156,1.954,1.954,0,0,0,1.652-.824A4.077,4.077,0,0,0,26.022,30.7Zm2.9-.008a4.993,4.993,0,0,1,.488-2.234,3.643,3.643,0,0,1,1.359-1.531,3.7,3.7,0,0,1,1.988-.539,3.565,3.565,0,0,1,2.793,1.2,4.6,4.6,0,0,1,1.066,3.18v.1a5.036,5.036,0,0,1-.473,2.215,3.589,3.589,0,0,1-1.352,1.527,3.743,3.743,0,0,1-2.02.547,3.556,3.556,0,0,1-2.785-1.2A4.575,4.575,0,0,1,28.921,30.8Zm1.453.172a3.616,3.616,0,0,0,.652,2.258,2.211,2.211,0,0,0,3.5-.012,3.955,3.955,0,0,0,.648-2.418,3.61,3.61,0,0,0-.66-2.254,2.1,2.1,0,0,0-1.754-.863,2.075,2.075,0,0,0-1.727.852A3.925,3.925,0,0,0,30.374,30.867Zm12.141-3.023a4.331,4.331,0,0,0-.711-.055A1.9,1.9,0,0,0,39.874,29v6H38.429V26.547h1.406l.023.977a2.251,2.251,0,0,1,2.016-1.133,1.477,1.477,0,0,1,.641.109Zm6.648-1.3.039.938a3.122,3.122,0,0,1,2.508-1.094,2.417,2.417,0,0,1,2.414,1.359,3.2,3.2,0,0,1,1.1-.984,3.242,3.242,0,0,1,1.6-.375q2.781,0,2.828,2.945V35H58.2V29.422a1.941,1.941,0,0,0-.414-1.355,1.823,1.823,0,0,0-1.391-.449,1.916,1.916,0,0,0-1.336.48,1.949,1.949,0,0,0-.617,1.293V35H52.991V29.461a1.613,1.613,0,0,0-1.8-1.844,1.934,1.934,0,0,0-1.945,1.211V35H47.8V26.547Zm16.172,8.609a3.693,3.693,0,0,1-2.8-1.129,4.19,4.19,0,0,1-1.078-3.02v-.266a5.073,5.073,0,0,1,.48-2.246,3.748,3.748,0,0,1,1.344-1.547,3.378,3.378,0,0,1,1.871-.559,3.166,3.166,0,0,1,2.563,1.086,4.7,4.7,0,0,1,.914,3.109v.6H62.905a3,3,0,0,0,.73,2.02,2.3,2.3,0,0,0,1.777.77,2.517,2.517,0,0,0,1.3-.312,3.259,3.259,0,0,0,.93-.828l.883.688A3.55,3.55,0,0,1,65.335,35.156Zm-.18-7.578a1.928,1.928,0,0,0-1.469.637A3.1,3.1,0,0,0,62.952,30h4.234v-.109a2.753,2.753,0,0,0-.594-1.707A1.815,1.815,0,0,0,65.155,27.578Zm4.8,3.125a4.952,4.952,0,0,1,.922-3.129,3.137,3.137,0,0,1,4.766-.168V23h1.445V35H75.757l-.07-.906a2.943,2.943,0,0,1-2.414,1.063,2.887,2.887,0,0,1-2.395-1.2,5.008,5.008,0,0,1-.926-3.141Zm1.445.164a3.749,3.749,0,0,0,.594,2.25,1.92,1.92,0,0,0,1.641.813A2.108,2.108,0,0,0,75.64,32.7V28.813a2.125,2.125,0,0,0-1.992-1.2,1.929,1.929,0,0,0-1.656.82A4.128,4.128,0,0,0,71.4,30.867ZM80.9,35H79.452V26.547H80.9ZM79.335,24.3a.863.863,0,0,1,.215-.594.807.807,0,0,1,.637-.242.819.819,0,0,1,.641.242.854.854,0,0,1,.219.594.826.826,0,0,1-.219.586.834.834,0,0,1-.641.234.821.821,0,0,1-.637-.234A.834.834,0,0,1,79.335,24.3ZM82.827,30.7a4.993,4.993,0,0,1,.488-2.234,3.643,3.643,0,0,1,1.359-1.531,3.7,3.7,0,0,1,1.988-.539,3.565,3.565,0,0,1,2.793,1.2,4.6,4.6,0,0,1,1.066,3.18v.1a5.036,5.036,0,0,1-.473,2.215A3.589,3.589,0,0,1,88.7,34.609a3.743,3.743,0,0,1-2.02.547,3.556,3.556,0,0,1-2.785-1.2A4.575,4.575,0,0,1,82.827,30.8Zm1.453.172a3.616,3.616,0,0,0,.652,2.258,2.211,2.211,0,0,0,3.5-.012,3.955,3.955,0,0,0,.648-2.418,3.61,3.61,0,0,0-.66-2.254,2.1,2.1,0,0,0-1.754-.863,2.075,2.075,0,0,0-1.727.852A3.925,3.925,0,0,0,84.28,30.867ZM95.944,30.7a4.952,4.952,0,0,1,.922-3.129,3.137,3.137,0,0,1,4.766-.168V23h1.445V35h-1.328l-.07-.906a2.943,2.943,0,0,1-2.414,1.063,2.887,2.887,0,0,1-2.395-1.2,5.008,5.008,0,0,1-.926-3.141Zm1.445.164a3.749,3.749,0,0,0,.594,2.25,1.92,1.92,0,0,0,1.641.813,2.108,2.108,0,0,0,2.008-1.234V28.813a2.125,2.125,0,0,0-1.992-1.2,1.929,1.929,0,0,0-1.656.82A4.128,4.128,0,0,0,97.39,30.867Zm11.438,4.289a3.693,3.693,0,0,1-2.8-1.129,4.19,4.19,0,0,1-1.078-3.02v-.266a5.073,5.073,0,0,1,.48-2.246,3.748,3.748,0,0,1,1.344-1.547,3.378,3.378,0,0,1,1.871-.559,3.166,3.166,0,0,1,2.563,1.086,4.7,4.7,0,0,1,.914,3.109v.6H106.4a3,3,0,0,0,.73,2.02,2.3,2.3,0,0,0,1.777.77,2.517,2.517,0,0,0,1.3-.312,3.259,3.259,0,0,0,.93-.828l.883.688A3.55,3.55,0,0,1,108.827,35.156Zm-.18-7.578a1.928,1.928,0,0,0-1.469.637A3.1,3.1,0,0,0,106.444,30h4.234v-.109a2.753,2.753,0,0,0-.594-1.707A1.815,1.815,0,0,0,108.647,27.578ZM115.366,35h-1.445V23h1.445ZM123,26.547l.039.938a3.122,3.122,0,0,1,2.508-1.094,2.417,2.417,0,0,1,2.414,1.359,3.2,3.2,0,0,1,1.1-.984,3.242,3.242,0,0,1,1.6-.375q2.781,0,2.828,2.945V35h-1.445V29.422a1.941,1.941,0,0,0-.414-1.355,1.823,1.823,0,0,0-1.391-.449,1.917,1.917,0,0,0-1.336.48,1.949,1.949,0,0,0-.617,1.293V35h-1.453V29.461a1.613,1.613,0,0,0-1.8-1.844,1.934,1.934,0,0,0-1.945,1.211V35h-1.445V26.547Zm16.172,8.609a3.693,3.693,0,0,1-2.8-1.129,4.19,4.19,0,0,1-1.078-3.02v-.266a5.073,5.073,0,0,1,.48-2.246,3.748,3.748,0,0,1,1.344-1.547,3.378,3.378,0,0,1,1.871-.559,3.166,3.166,0,0,1,2.563,1.086,4.7,4.7,0,0,1,.914,3.109v.6h-5.727a3,3,0,0,0,.73,2.02,2.3,2.3,0,0,0,1.777.77,2.517,2.517,0,0,0,1.3-.312,3.258,3.258,0,0,0,.93-.828l.883.688A3.55,3.55,0,0,1,139.171,35.156Zm-.18-7.578a1.928,1.928,0,0,0-1.469.637A3.1,3.1,0,0,0,136.788,30h4.234v-.109a2.753,2.753,0,0,0-.594-1.707A1.815,1.815,0,0,0,138.991,27.578Zm.7-4.562h1.75l-2.094,2.3-1.164,0ZM146.1,24.5v2.047h1.578v1.117H146.1v5.249a1.173,1.173,0,0,0,.211.763.888.888,0,0,0,.719.254,3.5,3.5,0,0,0,.688-.094V35a4.215,4.215,0,0,1-1.109.155,1.8,1.8,0,0,1-1.461-.586,2.517,2.517,0,0,1-.492-1.664V27.664h-1.539V26.547h1.539V24.5Zm2.727,6.2a4.993,4.993,0,0,1,.488-2.234,3.642,3.642,0,0,1,1.359-1.531,3.7,3.7,0,0,1,1.988-.539,3.565,3.565,0,0,1,2.793,1.2,4.6,4.6,0,0,1,1.066,3.18v.1a5.036,5.036,0,0,1-.473,2.215,3.589,3.589,0,0,1-1.352,1.527,3.743,3.743,0,0,1-2.02.547,3.556,3.556,0,0,1-2.785-1.2,4.575,4.575,0,0,1-1.066-3.164Zm1.453.172a3.616,3.616,0,0,0,.652,2.258,2.211,2.211,0,0,0,3.5-.012,3.954,3.954,0,0,0,.648-2.418,3.61,3.61,0,0,0-.66-2.254,2.1,2.1,0,0,0-1.754-.863,2.075,2.075,0,0,0-1.727.852A3.925,3.925,0,0,0,150.28,30.867Zm7.7-.164a4.952,4.952,0,0,1,.922-3.129,3.137,3.137,0,0,1,4.766-.168V23h1.445V35h-1.328l-.07-.906a2.943,2.943,0,0,1-2.414,1.063,2.887,2.887,0,0,1-2.395-1.2,5.008,5.008,0,0,1-.926-3.141Zm1.445.164a3.749,3.749,0,0,0,.594,2.25,1.919,1.919,0,0,0,1.641.813,2.108,2.108,0,0,0,2.008-1.234V28.813a2.125,2.125,0,0,0-1.992-1.2,1.929,1.929,0,0,0-1.656.82A4.128,4.128,0,0,0,159.429,30.867Zm7.547-.172a4.993,4.993,0,0,1,.488-2.234,3.642,3.642,0,0,1,1.359-1.531,3.7,3.7,0,0,1,1.988-.539,3.565,3.565,0,0,1,2.793,1.2,4.6,4.6,0,0,1,1.066,3.18v.1a5.036,5.036,0,0,1-.473,2.215,3.589,3.589,0,0,1-1.352,1.527,3.743,3.743,0,0,1-2.02.547,3.556,3.556,0,0,1-2.785-1.2,4.575,4.575,0,0,1-1.066-3.164Zm1.453.172a3.616,3.616,0,0,0,.652,2.258,2.211,2.211,0,0,0,3.5-.012,3.954,3.954,0,0,0,.648-2.418,3.61,3.61,0,0,0-.66-2.254,2.1,2.1,0,0,0-1.754-.863,2.075,2.075,0,0,0-1.727.852A3.925,3.925,0,0,0,168.429,30.867Zm-129.945,20a5.026,5.026,0,0,1-.891,3.113A2.846,2.846,0,0,1,35.2,55.156a2.947,2.947,0,0,1-2.477-1.133l-.07.977H31.327V43h1.445v4.477a2.93,2.93,0,0,1,2.414-1.086A2.863,2.863,0,0,1,37.6,47.555a5.177,5.177,0,0,1,.879,3.188ZM37.038,50.7a3.906,3.906,0,0,0-.57-2.281,1.888,1.888,0,0,0-1.641-.8,2.122,2.122,0,0,0-2.055,1.328V52.6a2.181,2.181,0,0,0,2.07,1.328,1.878,1.878,0,0,0,1.617-.8A4.153,4.153,0,0,0,37.038,50.7Zm6.773,4.453a3.693,3.693,0,0,1-2.8-1.129,4.19,4.19,0,0,1-1.078-3.02v-.266a5.073,5.073,0,0,1,.48-2.246,3.748,3.748,0,0,1,1.344-1.547,3.378,3.378,0,0,1,1.871-.559,3.166,3.166,0,0,1,2.563,1.086,4.7,4.7,0,0,1,.914,3.109v.6H41.382a3,3,0,0,0,.73,2.02,2.3,2.3,0,0,0,1.777.77,2.517,2.517,0,0,0,1.3-.312,3.258,3.258,0,0,0,.93-.828l.883.688A3.55,3.55,0,0,1,43.811,55.156Zm-.18-7.578a1.928,1.928,0,0,0-1.469.637A3.1,3.1,0,0,0,41.429,50h4.234v-.109a2.753,2.753,0,0,0-.594-1.707A1.815,1.815,0,0,0,43.632,47.578Zm4.8,3.125a4.968,4.968,0,0,1,.914-3.145,3.151,3.151,0,0,1,4.836-.074l.07-.937h1.32V54.8a3.439,3.439,0,0,1-.973,2.586,3.589,3.589,0,0,1-2.613.945,4.348,4.348,0,0,1-1.789-.391,3.08,3.08,0,0,1-1.336-1.07l.75-.867a2.826,2.826,0,0,0,2.273,1.148,2.214,2.214,0,0,0,1.645-.594,2.269,2.269,0,0,0,.59-1.672v-.727a2.971,2.971,0,0,1-2.367,1,2.887,2.887,0,0,1-2.4-1.2A5.224,5.224,0,0,1,48.436,50.7Zm1.453.164a3.79,3.79,0,0,0,.586,2.246,1.9,1.9,0,0,0,1.641.816,2.117,2.117,0,0,0,2.008-1.242V48.828a2.142,2.142,0,0,0-1.992-1.211,1.921,1.921,0,0,0-1.648.82A4.128,4.128,0,0,0,49.89,50.867ZM59.327,55H57.882V46.547h1.445ZM57.765,44.3a.863.863,0,0,1,.215-.594.807.807,0,0,1,.637-.242.819.819,0,0,1,.641.242.854.854,0,0,1,.219.594.826.826,0,0,1-.219.586.834.834,0,0,1-.641.234.821.821,0,0,1-.637-.234A.834.834,0,0,1,57.765,44.3Zm5.242,2.242.047,1.063a3.08,3.08,0,0,1,2.531-1.219q2.68,0,2.7,3.023V55H66.843V49.406a1.946,1.946,0,0,0-.418-1.352,1.675,1.675,0,0,0-1.277-.437,2.086,2.086,0,0,0-1.234.375,2.546,2.546,0,0,0-.828.984V55H61.64V46.547Zm15.547-1.7H74.9V55H73.405V44.852H69.757V43.625h8.8Zm4.961,2.992a4.331,4.331,0,0,0-.711-.055A1.9,1.9,0,0,0,80.874,49v6H79.429V46.547h1.406l.023.977a2.251,2.251,0,0,1,2.016-1.133,1.477,1.477,0,0,1,.641.109ZM89.749,55a3.036,3.036,0,0,1-.2-.891,3.225,3.225,0,0,1-2.406,1.047,2.984,2.984,0,0,1-2.051-.707,2.288,2.288,0,0,1-.8-1.793,2.39,2.39,0,0,1,1-2.051,4.733,4.733,0,0,1,2.824-.73h1.406v-.664A1.623,1.623,0,0,0,89.069,48a1.821,1.821,0,0,0-1.336-.449,2.107,2.107,0,0,0-1.3.391,1.151,1.151,0,0,0-.523.945H84.46a2,2,0,0,1,.449-1.223,3.066,3.066,0,0,1,1.219-.934,4.1,4.1,0,0,1,1.691-.344,3.342,3.342,0,0,1,2.289.73,2.635,2.635,0,0,1,.859,2.012v3.891a4.757,4.757,0,0,0,.3,1.852V55Zm-2.4-1.1a2.54,2.54,0,0,0,1.289-.352,2.127,2.127,0,0,0,.883-.914V50.9H88.39q-2.656,0-2.656,1.555a1.316,1.316,0,0,0,.453,1.063A1.742,1.742,0,0,0,87.351,53.9Zm7.25-7.352.047,1.063a3.08,3.08,0,0,1,2.531-1.219q2.68,0,2.7,3.023V55H98.436V49.406a1.946,1.946,0,0,0-.418-1.352,1.675,1.675,0,0,0-1.277-.437,2.086,2.086,0,0,0-1.234.375,2.546,2.546,0,0,0-.828.984V55H93.233V46.547Zm12.383,6.211a1.064,1.064,0,0,0-.441-.91A4.249,4.249,0,0,0,105,51.289a7.277,7.277,0,0,1-1.742-.562,2.479,2.479,0,0,1-.953-.781A1.869,1.869,0,0,1,102,48.867a2.193,2.193,0,0,1,.879-1.758,3.432,3.432,0,0,1,2.246-.719,3.532,3.532,0,0,1,2.332.742,2.357,2.357,0,0,1,.895,1.9H106.9a1.3,1.3,0,0,0-.5-1.023,1.888,1.888,0,0,0-1.27-.43,1.976,1.976,0,0,0-1.234.344,1.082,1.082,0,0,0-.445.9.877.877,0,0,0,.414.789,5.1,5.1,0,0,0,1.5.508,7.8,7.8,0,0,1,1.754.578,2.558,2.558,0,0,1,1,.809,1.988,1.988,0,0,1,.324,1.152,2.163,2.163,0,0,1-.906,1.816,3.8,3.8,0,0,1-2.352.684,4.257,4.257,0,0,1-1.8-.359,2.922,2.922,0,0,1-1.223-1,2.42,2.42,0,0,1-.441-1.395h1.445a1.5,1.5,0,0,0,.582,1.152,2.258,2.258,0,0,0,1.434.426,2.331,2.331,0,0,0,1.316-.332A1.02,1.02,0,0,0,106.983,52.758ZM115.53,55a3.036,3.036,0,0,1-.2-.891,3.225,3.225,0,0,1-2.406,1.047,2.984,2.984,0,0,1-2.051-.707,2.288,2.288,0,0,1-.8-1.793,2.39,2.39,0,0,1,1-2.051,4.733,4.733,0,0,1,2.824-.73H115.3v-.664A1.623,1.623,0,0,0,114.851,48a1.821,1.821,0,0,0-1.336-.449,2.107,2.107,0,0,0-1.3.391,1.151,1.151,0,0,0-.523.945h-1.453a2,2,0,0,1,.449-1.223,3.066,3.066,0,0,1,1.219-.934,4.1,4.1,0,0,1,1.691-.344,3.342,3.342,0,0,1,2.289.73,2.635,2.635,0,0,1,.859,2.012v3.891a4.757,4.757,0,0,0,.3,1.852V55Zm-2.4-1.1a2.54,2.54,0,0,0,1.289-.352,2.127,2.127,0,0,0,.883-.914V50.9h-1.133q-2.656,0-2.656,1.555a1.316,1.316,0,0,0,.453,1.063A1.742,1.742,0,0,0,113.132,53.9Zm9.273.078a2.082,2.082,0,0,0,1.352-.469,1.649,1.649,0,0,0,.641-1.172h1.367a2.621,2.621,0,0,1-.5,1.383,3.293,3.293,0,0,1-1.23,1.047,3.55,3.55,0,0,1-1.629.391A3.482,3.482,0,0,1,119.659,54a4.59,4.59,0,0,1-1.02-3.152v-.242a5.089,5.089,0,0,1,.453-2.2,3.451,3.451,0,0,1,1.3-1.492,3.7,3.7,0,0,1,2-.531,3.39,3.39,0,0,1,2.363.852,3.043,3.043,0,0,1,1,2.211H124.4a1.992,1.992,0,0,0-.621-1.348,1.932,1.932,0,0,0-1.379-.527,2.023,2.023,0,0,0-1.707.793,3.724,3.724,0,0,0-.605,2.293v.273a3.65,3.65,0,0,0,.6,2.25A2.033,2.033,0,0,0,122.405,53.977Zm6.945-9.477v2.047h1.578v1.117h-1.578v5.249a1.173,1.173,0,0,0,.211.763.888.888,0,0,0,.719.254,3.5,3.5,0,0,0,.688-.094V55a4.215,4.215,0,0,1-1.109.155,1.8,1.8,0,0,1-1.461-.586,2.517,2.517,0,0,1-.492-1.664V47.664h-1.539V46.547h1.539V44.5ZM134.186,55h-1.445V46.547h1.445Zm-1.562-10.7a.863.863,0,0,1,.215-.594.807.807,0,0,1,.637-.242.819.819,0,0,1,.641.242.854.854,0,0,1,.219.594.826.826,0,0,1-.219.586.834.834,0,0,1-.641.234.821.821,0,0,1-.637-.234A.834.834,0,0,1,132.624,44.3Zm3.492,6.391a4.993,4.993,0,0,1,.488-2.234,3.642,3.642,0,0,1,1.359-1.531,3.7,3.7,0,0,1,1.988-.539,3.565,3.565,0,0,1,2.793,1.2,4.6,4.6,0,0,1,1.066,3.18v.1a5.036,5.036,0,0,1-.473,2.215,3.589,3.589,0,0,1-1.352,1.527,3.743,3.743,0,0,1-2.02.547,3.556,3.556,0,0,1-2.785-1.2,4.575,4.575,0,0,1-1.066-3.164Zm1.453.172a3.616,3.616,0,0,0,.652,2.258,2.211,2.211,0,0,0,3.5-.012,3.954,3.954,0,0,0,.648-2.418,3.61,3.61,0,0,0-.66-2.254,2.1,2.1,0,0,0-1.754-.863,2.075,2.075,0,0,0-1.727.852A3.925,3.925,0,0,0,137.569,50.867Zm9.422-4.32.047,1.063a3.08,3.08,0,0,1,2.531-1.219q2.68,0,2.7,3.023V55h-1.445V49.406a1.946,1.946,0,0,0-.418-1.352,1.675,1.675,0,0,0-1.277-.437,2.086,2.086,0,0,0-1.234.375,2.546,2.546,0,0,0-.828.984V55h-1.445V46.547Zm7.406,3.836a12.079,12.079,0,0,1,.473-3.391,9.85,9.85,0,0,1,1.41-2.953,6,6,0,0,1,1.945-1.875l.3.953a6.222,6.222,0,0,0-1.871,2.672,11.583,11.583,0,0,0-.8,4.023l-.008.664a11.643,11.643,0,0,0,1.1,5.234,6.252,6.252,0,0,0,1.578,2.078l-.3.883a6.192,6.192,0,0,1-1.984-1.937A10.859,10.859,0,0,1,154.4,50.383Zm8.859.078a12.085,12.085,0,0,1-.457,3.34,9.876,9.876,0,0,1-1.4,2.949,6.127,6.127,0,0,1-1.973,1.922l-.3-.883a6.281,6.281,0,0,0,1.934-2.863,12.387,12.387,0,0,0,.746-4.309v-.25a12.861,12.861,0,0,0-.344-3.051,10.3,10.3,0,0,0-.957-2.527,5.838,5.838,0,0,0-1.379-1.742l.3-.883a6.1,6.1,0,0,1,1.965,1.906,9.9,9.9,0,0,1,1.4,2.945A12.364,12.364,0,0,1,163.257,50.461Z" transform="translate(15.127 68.07)" fill="#00223d"/>
    </g>
    <g id="Grupo_49901" data-name="Grupo 49901" transform="translate(68.52 0)">
      <g id="Grupo_18423" data-name="Grupo 18423" transform="translate(0 0)">
        <g id="Grupo_18421" data-name="Grupo 18421">
          <g id="Grupo_18420" data-name="Grupo 18420">
            <g id="Grupo_18419" data-name="Grupo 18419">
              <path id="Trazado_40936" data-name="Trazado 40936" d="M281.962,2189.389a43.669,43.669,0,1,1-43.669-43.668A43.669,43.669,0,0,1,281.962,2189.389Z" transform="translate(-194.623 -2145.721)" fill="#fff"/>
            </g>
          </g>
        </g>
        <path id="Trazado_40937" data-name="Trazado 40937" d="M281.7,2189.1a43.669,43.669,0,1,0-43.669,43.67A43.5,43.5,0,0,0,281.7,2189.1Z" transform="translate(-194.361 -2145.436)" fill="url(#radial-gradient)"/>
        <path id="Trazado_40938" data-name="Trazado 40938" d="M269.1,2186.859a33.332,33.332,0,1,0-33.333,33.333A33.209,33.209,0,0,0,269.1,2186.859Z" transform="translate(-191.968 -2143.046)" fill="none" stroke="#ffa726" stroke-miterlimit="10" stroke-width="4"/>
        <g id="Grupo_18422" data-name="Grupo 18422" transform="translate(7.736 24.517)">
          <path id="Trazado_40939" data-name="Trazado 40939" d="M275.732,2164.488a43.675,43.675,0,0,1-75.187,43.488,43.536,43.536,0,0,0,75.187-43.488Z" transform="translate(-200.545 -2164.488)" fill="#eceef0"/>
        </g>
      </g>
      <g id="Grupo_145706" data-name="Grupo 145706" transform="translate(26.74 23.559)">
        <g id="Grupo_26538" data-name="Grupo 26538" transform="translate(0 0)">
          <g id="Grupo_26537" data-name="Grupo 26537">
            <g id="Grupo_26525" data-name="Grupo 26525">
              <g id="Grupo_26524" data-name="Grupo 26524">
                <path id="Trazado_67369" data-name="Trazado 67369" d="M2150.625,1909.814h-24.2a.376.376,0,0,1-.376-.376v-31.145a.376.376,0,0,1,.376-.376h24.2a.376.376,0,0,1,.376.376v31.145A.376.376,0,0,1,2150.625,1909.814Zm-23.823-.751h23.448v-30.394H2126.8Z" transform="translate(-2126.05 -1877.918)" fill="#00223d"/>
              </g>
            </g>
            <g id="Grupo_26534" data-name="Grupo 26534" transform="translate(3.645 4.494)">
              <g id="Grupo_26526" data-name="Grupo 26526" transform="translate(10.249)">
                <path id="Trazado_67370" data-name="Trazado 67370" d="M2210.5,1903.814h-6.335a.376.376,0,1,1,0-.751h6.335a.376.376,0,0,1,0,.751Z" transform="translate(-2203.794 -1903.063)" fill="#00223d"/>
              </g>
              <g id="Grupo_26527" data-name="Grupo 26527" transform="translate(10.249 3.064)">
                <path id="Trazado_67371" data-name="Trazado 67371" d="M2210.5,1920.955h-6.335a.376.376,0,1,1,0-.751h6.335a.376.376,0,0,1,0,.751Z" transform="translate(-2203.794 -1920.204)" fill="#00223d"/>
              </g>
              <g id="Grupo_26528" data-name="Grupo 26528" transform="translate(10.249 6.127)">
                <path id="Trazado_67372" data-name="Trazado 67372" d="M2210.5,1938.1h-6.335a.376.376,0,1,1,0-.751h6.335a.376.376,0,0,1,0,.751Z" transform="translate(-2203.794 -1937.344)" fill="#00223d"/>
              </g>
              <g id="Grupo_26529" data-name="Grupo 26529" transform="translate(0 9.157)">
                <path id="Trazado_67373" data-name="Trazado 67373" d="M2163.131,1955.047h-16.308a.376.376,0,1,1,0-.751h16.308a.376.376,0,1,1,0,.751Z" transform="translate(-2146.447 -1954.296)" fill="#00223d"/>
              </g>
              <g id="Grupo_26530" data-name="Grupo 26530" transform="translate(0.051 12.548)">
                <path id="Trazado_67374" data-name="Trazado 67374" d="M2163.641,1974.022h-16.533a.376.376,0,1,1,0-.751h16.533a.376.376,0,0,1,0,.751Z" transform="translate(-2146.732 -1973.271)" fill="#00223d"/>
              </g>
              <g id="Grupo_26531" data-name="Grupo 26531" transform="translate(0.051 15.611)">
                <path id="Trazado_67375" data-name="Trazado 67375" d="M2163.641,1991.162h-16.533a.376.376,0,1,1,0-.751h16.533a.376.376,0,0,1,0,.751Z" transform="translate(-2146.732 -1990.411)" fill="#00223d"/>
              </g>
              <g id="Grupo_26532" data-name="Grupo 26532" transform="translate(0.051 18.675)">
                <path id="Trazado_67376" data-name="Trazado 67376" d="M2163.641,2008.3h-16.533a.376.376,0,1,1,0-.751h16.533a.376.376,0,0,1,0,.751Z" transform="translate(-2146.732 -2007.552)" fill="#00223d"/>
              </g>
              <g id="Grupo_26533" data-name="Grupo 26533" transform="translate(0.051 21.738)">
                <path id="Trazado_67377" data-name="Trazado 67377" d="M2157.946,2025.444h-10.838a.376.376,0,0,1,0-.751h10.838a.376.376,0,0,1,0,.751Z" transform="translate(-2146.732 -2024.692)" fill="#00223d"/>
              </g>
            </g>
            <g id="Grupo_26536" data-name="Grupo 26536" transform="translate(3.461 2.681)">
              <g id="Grupo_26535" data-name="Grupo 26535">
                <path id="Trazado_67378" data-name="Trazado 67378" d="M2150.47,1901.69l-.688,2.3h-2.265l2.953-8.975h2.867l3,8.975h-2.351l-.746-2.3Zm2.451-1.518-.6-1.9c-.172-.533-.344-1.2-.488-1.731h-.028c-.144.532-.287,1.212-.444,1.731l-.573,1.9Z" transform="translate(-2147.142 -1894.643)" fill="none"/>
                <path id="Trazado_67379" data-name="Trazado 67379" d="M2154.607,1902.644h-2.351a.376.376,0,0,1-.358-.26l-.661-2.044h-2.213l-.608,2.035a.375.375,0,0,1-.359.268h-2.265a.376.376,0,0,1-.357-.493l2.953-8.975a.375.375,0,0,1,.357-.258h2.867a.377.377,0,0,1,.357.257l3,8.975a.375.375,0,0,1-.356.495Zm-2.078-.751h1.556l-2.745-8.224h-2.324l-2.706,8.224h1.466l.607-2.036a.376.376,0,0,1,.36-.268h2.766a.376.376,0,0,1,.357.26Zm-1.334-3.071h-2.135a.376.376,0,0,1-.36-.484l.573-1.9c.091-.3.179-.666.265-1.018.059-.245.117-.486.176-.7a.375.375,0,0,1,.363-.278h.028a.375.375,0,0,1,.363.278l.071.264c.126.474.27,1.01.412,1.449l.6,1.906a.375.375,0,0,1-.358.489Zm-1.63-.751h1.118l-.448-1.415c-.042-.132-.086-.272-.127-.416-.038.143-.076.281-.115.411Z" transform="translate(-2145.416 -1892.917)" fill="#00223d"/>
              </g>
            </g>
          </g>
        </g>
        <g id="Grupo_26552" data-name="Grupo 26552" transform="translate(8.489 15.518)">
          <g id="Grupo_26546" data-name="Grupo 26546" transform="translate(13.753 11.475)">
            <g id="Grupo_26539" data-name="Grupo 26539" transform="translate(2.391 4.561)">
              <path id="Trazado_67382" data-name="Trazado 67382" d="M2271.549,2062.907a1.553,1.553,0,0,1-.565-.106,1.545,1.545,0,0,1-.988-1.431,1.561,1.561,0,0,1-1.054-.027,1.543,1.543,0,0,1-.988-1.43,1.56,1.56,0,0,1-1.055-.027,1.544,1.544,0,0,1-.988-1.431,1.561,1.561,0,0,1-1.055-.027,1.541,1.541,0,0,1-.878-2.007l.682-1.714a.376.376,0,0,1,.7.278l-.682,1.714a.782.782,0,0,0,.01.6.791.791,0,0,0,.443.424.812.812,0,0,0,1.048-.453l.192-.483a.376.376,0,0,1,.649-.088l.056.074a.375.375,0,0,1,.05.365l-.4,1.014a.78.78,0,0,0,.009.6.79.79,0,0,0,.443.424.811.811,0,0,0,1.046-.452l.3-.756a.375.375,0,0,1,.609-.132l.062.059a.375.375,0,0,1,.089.41l-.517,1.3a.78.78,0,0,0,.009.6.792.792,0,0,0,.443.424.813.813,0,0,0,1.047-.453l.458-1.152a.376.376,0,0,1,.545-.182l.068.041a.377.377,0,0,1,.153.46l-.682,1.715a.779.779,0,0,0,.009.6.792.792,0,0,0,.443.424.812.812,0,0,0,1.047-.452l.35-.879a.376.376,0,1,1,.7.278l-.35.879A1.564,1.564,0,0,1,2271.549,2062.907Z" transform="translate(-2263.868 -2054.47)" fill="#00223d"/>
            </g>
            <g id="Grupo_26540" data-name="Grupo 26540" transform="translate(1.542 1.055)">
              <path id="Trazado_67383" data-name="Trazado 67383" d="M2264.135,2041.153l-2.352-1.678a1.336,1.336,0,0,1-.305-1.877l.066-.091a1.366,1.366,0,0,1,1.895-.308l5.5,3.925Z" transform="translate(-2260.845 -2036.571)" fill="#fff"/>
              <path id="Trazado_67384" data-name="Trazado 67384" d="M2262.408,2039.808a.376.376,0,0,1-.218-.07l-2.352-1.679a1.712,1.712,0,0,1-.391-2.4l.064-.09a1.745,1.745,0,0,1,2.418-.395l5.5,3.925a.376.376,0,1,1-.436.612l-5.5-3.925a.991.991,0,0,0-1.373.223l-.065.09a.961.961,0,0,0,.218,1.352l2.352,1.679a.376.376,0,0,1-.218.682Z" transform="translate(-2259.118 -2034.85)" fill="#00223d"/>
            </g>
            <g id="Grupo_26541" data-name="Grupo 26541" transform="translate(4.421 3.985)">
              <path id="Trazado_67385" data-name="Trazado 67385" d="M2283.365,2058.9l-5.177-2.643a1.528,1.528,0,0,1-.691-2.062,1.56,1.56,0,0,1,2.082-.691l7.208,3.084Z" transform="translate(-2276.956 -2052.969)" fill="#fff"/>
              <path id="Trazado_67386" data-name="Trazado 67386" d="M2281.635,2057.555a.376.376,0,0,1-.17-.042l-5.177-2.644a1.9,1.9,0,0,1-.855-2.566,1.94,1.94,0,0,1,2.583-.858l7.19,3.075a.376.376,0,1,1-.3.691l-7.209-3.084a1.192,1.192,0,0,0-1.6.515,1.153,1.153,0,0,0,.522,1.556l5.181,2.646a.376.376,0,0,1-.172.711Z" transform="translate(-2275.227 -2051.246)" fill="#00223d"/>
            </g>
            <g id="Grupo_26542" data-name="Grupo 26542" transform="translate(5.05 1.792)">
              <path id="Trazado_67387" data-name="Trazado 67387" d="M2293.255,2044.268a.375.375,0,0,1-.263-.108,23.506,23.506,0,0,0-4.9-3.681,4,4,0,0,0-1.208-.434,20.351,20.351,0,0,0-7.675.107.376.376,0,1,1-.179-.729,20.749,20.749,0,0,1,7.992-.115,4.77,4.77,0,0,1,1.434.516,24.266,24.266,0,0,1,5.057,3.8.376.376,0,0,1-.263.644Z" transform="translate(-2278.749 -2038.975)" fill="#00223d"/>
            </g>
            <g id="Grupo_26543" data-name="Grupo 26543" transform="translate(10.441 9.463)">
              <path id="Trazado_67388" data-name="Trazado 67388" d="M2314.384,2085.663h-.031a7.725,7.725,0,0,1-5.377-3.178.376.376,0,1,1,.623-.419,7.091,7.091,0,0,0,4.814,2.849.376.376,0,0,1-.029.75Z" transform="translate(-2308.912 -2081.898)" fill="#00223d"/>
            </g>
            <g id="Grupo_26544" data-name="Grupo 26544" transform="translate(0 1.468)">
              <path id="Trazado_67389" data-name="Trazado 67389" d="M2252.166,2038.841a.375.375,0,0,1-.218-.07l-1.3-.926a.376.376,0,0,1,.436-.612l1.3.926a.376.376,0,0,1-.219.681Z" transform="translate(-2250.493 -2037.164)" fill="#00223d"/>
            </g>
            <g id="Grupo_26545" data-name="Grupo 26545" transform="translate(1.068)">
              <path id="Trazado_67390" data-name="Trazado 67390" d="M2258.142,2030.627a.374.374,0,0,1-.218-.07l-1.3-.926a.376.376,0,1,1,.437-.612l1.3.926a.376.376,0,0,1-.218.682Z" transform="translate(-2256.469 -2028.95)" fill="#00223d"/>
            </g>
          </g>
          <g id="Grupo_26547" data-name="Grupo 26547">
            <path id="Trazado_67391" data-name="Trazado 67391" d="M2189.143,1969.119a7.784,7.784,0,0,1,0,11.079,7.957,7.957,0,0,1-11.18,0,7.784,7.784,0,0,1,0-11.079A7.957,7.957,0,0,1,2189.143,1969.119Z" transform="translate(-2175.272 -1966.453)" fill="#fff"/>
            <path id="Trazado_67392" data-name="Trazado 67392" d="M2181.826,1981.156a8.29,8.29,0,0,1-5.854-2.4,8.159,8.159,0,0,1,0-11.613,8.342,8.342,0,0,1,11.709,0,8.16,8.16,0,0,1,0,11.613A8.3,8.3,0,0,1,2181.826,1981.156Zm0-15.66a7.541,7.541,0,0,0-5.325,2.182,7.407,7.407,0,0,0,0,10.545,7.589,7.589,0,0,0,10.651,0,7.408,7.408,0,0,0,0-10.545A7.544,7.544,0,0,0,2181.825,1965.5Z" transform="translate(-2173.544 -1964.745)" fill="#00223d"/>
          </g>
          <g id="Grupo_26548" data-name="Grupo 26548" transform="translate(1.968 1.949)">
            <path id="Trazado_67393" data-name="Trazado 67393" d="M2196.8,1979.46a5.847,5.847,0,0,1,0,8.321,5.976,5.976,0,0,1-8.4,0,5.846,5.846,0,0,1,0-8.321A5.976,5.976,0,0,1,2196.8,1979.46Z" transform="translate(-2186.284 -1977.364)" fill="none"/>
            <path id="Trazado_67394" data-name="Trazado 67394" d="M2190.87,1988.164a6.318,6.318,0,0,1-4.462-1.829,6.221,6.221,0,0,1,0-8.854,6.358,6.358,0,0,1,8.925,0,6.222,6.222,0,0,1,0,8.854A6.323,6.323,0,0,1,2190.87,1988.164Zm0-11.762a5.57,5.57,0,0,0-3.933,1.612,5.471,5.471,0,0,0,0,7.787,5.6,5.6,0,0,0,7.867,0,5.47,5.47,0,0,0,0-7.787A5.571,5.571,0,0,0,2190.87,1976.4Z" transform="translate(-2184.558 -1975.652)" fill="#00223d"/>
          </g>
          <g id="Grupo_26549" data-name="Grupo 26549" transform="translate(1.933 7.738)">
            <path id="Trazado_67395" data-name="Trazado 67395" d="M2193.253,2008.793h-8.517a.376.376,0,0,1,0-.752h8.517a.376.376,0,0,1,0,.752Z" transform="translate(-2184.361 -2008.041)" fill="#00223d"/>
          </g>
          <g id="Grupo_26550" data-name="Grupo 26550" transform="translate(2.818 4.972)">
            <path id="Trazado_67396" data-name="Trazado 67396" d="M2195.963,1993.317h-6.275a.376.376,0,0,1,0-.751h6.275a.376.376,0,0,1,0,.751Z" transform="translate(-2189.313 -1992.566)" fill="#00223d"/>
          </g>
          <g id="Grupo_26551" data-name="Grupo 26551" transform="translate(2.682 10.504)">
            <path id="Trazado_67397" data-name="Trazado 67397" d="M2196.354,2024.269h-7.429a.376.376,0,0,1,0-.751h7.429a.376.376,0,1,1,0,.751Z" transform="translate(-2188.55 -2023.517)" fill="#00223d"/>
          </g>
        </g>
      </g>
    </g>
  </g>
</svg>
